<?xml version="1.0" encoding="iso-8859-1"?>
<!-- Generator: Adobe Illustrator 19.0.0, SVG Export Plug-In . SVG Version: 6.00 Build 0)  -->
<svg version="1.1" id="Capa_1" xmlns="http://www.w3.org/2000/svg" xmlns:xlink="http://www.w3.org/1999/xlink" x="0px" y="0px"
	 viewBox="0 0 512.001 512.001" style="enable-background:new 0 0 512.001 512.001;" xml:space="preserve">
<g>
	<path style="fill:#82DBD2;" d="M156.001,36c-27.12,0-49.77,18.11-57.2,42.8c-24.69,7.43-42.8,30.08-42.8,57.2
		c0,10.74,3.05,20.68,8,29.41c-16.78,10.63-28,29.25-28,50.59c0,33.14,26.86,60,60,60c7.36,0,14.42-1.33,20.93-3.75
		c-0.61-5.33-0.93-10.75-0.93-16.25c0-45.56,21.77-86.04,55.47-111.61l26.79-90.74C187.411,42.8,172.551,36,156.001,36z"/>
	<path style="fill:#82DBD2;" d="M448.001,165.41c4.95-8.73,8-18.67,8-29.41c0-27.12-18.11-49.77-42.8-57.2
		c-7.43-24.69-30.08-42.8-57.2-42.8c-16.55,0-31.41,6.8-42.26,17.65l26.79,90.74c33.7,25.57,55.47,66.05,55.47,111.61
		c0,5.5-0.32,10.92-0.93,16.25c6.51,2.42,13.57,3.75,20.93,3.75c33.14,0,60-26.86,60-60
		C476.001,194.66,464.781,176.04,448.001,165.41z"/>
</g>
<polygon style="fill:#FFC266;" points="359.511,350.27 316.731,382.18 398.181,434.55 456.001,396 "/>
<polygon style="fill:#FF6564;" points="316.731,382.18 279.751,393.99 316.001,456 396.001,502 396.001,436 398.181,434.55 "/>
<path style="fill:#F5F5F5;" d="M256.001,396c-77.091,0-140-62.451-140-140c0-45.56,21.77-86.04,55.47-111.61
	c21.68,7.17,51.55,11.61,84.53,11.61s62.85-4.44,84.53-11.61c33.7,25.57,55.47,66.05,55.47,111.61
	C396.001,333.273,333.381,396,256.001,396z"/>
<path style="fill:#48475A;" d="M316.001,81.35c35.87,6.92,60,19.84,60,34.65c0,11.1-13.56,21.14-35.47,28.39
	c-21.68,7.17-51.55,11.61-84.53,11.61s-62.85-4.44-84.53-11.61c-21.91-7.25-35.47-17.29-35.47-28.39c0-14.81,24.13-27.73,60-34.65
	V70c0-5.67,0.79-11.15,2.26-16.35c7.11-25.19,30.27-43.65,57.74-43.65s50.63,18.46,57.74,43.65c1.47,5.2,2.26,10.68,2.26,16.35
	V81.35z"/>
<polygon style="fill:#FFC266;" points="279.751,393.99 232.251,393.99 196.001,456 256.001,502 316.001,456 "/>
<g>
	<circle style="fill:#FF6564;" cx="256.001" cy="256" r="40"/>
	<polygon style="fill:#FF6564;" points="196.121,382.58 116.001,436 116.001,502 196.001,456 232.251,393.99 	"/>
</g>
<polygon style="fill:#FFC266;" points="152.501,350.28 56.001,396 116.001,436 196.121,382.58 "/>
<path d="M326.001,216c5.52,0,10-4.48,10-10s-4.48-10-10-10s-10,4.48-10,10S320.481,216,326.001,216z"/>
<path d="M256.001,126c5.52,0,10-4.48,10-10s-4.48-10-10-10c-5.52,0-10,4.48-10,10S250.481,126,256.001,126z"/>
<path d="M186.001,216c5.52,0,10-4.48,10-10s-4.48-10-10-10s-10,4.48-10,10S180.481,216,186.001,216z"/>
<path d="M26.001,216c0,38.598,31.402,70,70,70c4.312,0,8.577-0.396,12.767-1.169c4.378,22.565,13.848,43.615,27.812,61.927
	l-84.861,40.205c-3.255,1.543-5.43,4.717-5.692,8.31c-0.262,3.594,1.429,7.05,4.427,9.048l55.547,37.031V502
	c0,3.569,1.903,6.868,4.992,8.656c3.091,1.786,6.899,1.793,9.993,0.013l74.221-42.677l54.709,41.944
	c1.795,1.377,3.94,2.064,6.085,2.064s4.29-0.688,6.084-2.063l54.709-41.944l74.221,42.677c3.095,1.78,6.903,1.773,9.993-0.013
	c3.089-1.788,4.992-5.087,4.992-8.656v-60.646l55.547-37.034c2.997-1.998,4.688-5.454,4.426-9.047s-2.436-6.768-5.691-8.31
	l-84.853-40.216c13.956-18.302,23.422-39.347,27.802-61.917c4.19,0.773,8.455,1.169,12.768,1.169c38.598,0,70-31.402,70-70
	c0-20.995-9.327-40.503-25.332-53.73c3.544-8.465,5.334-17.268,5.334-26.27c0-29.196-17.846-54.728-44.926-65.074
	C410.729,43.847,385.197,26,356.001,26c-13.675,0-26.787,3.987-38.055,11.398C306.023,14.83,282.252,0,256.001,0
	s-50.023,14.831-61.945,37.397C182.788,29.987,169.676,26,156.001,26c-29.196,0-54.728,17.847-65.074,44.926
	C63.847,81.272,46.001,106.804,46.001,136c0,9.002,1.79,17.805,5.332,26.27C35.328,175.497,26.001,195.005,26.001,216z
	 M173.542,155.506C196.444,162.287,225.453,166,256.001,166s59.556-3.713,82.459-10.494c30.274,24.823,47.541,61.161,47.541,100.494
	c0,80.952-72.979,141.651-152.067,128.133C173.126,373.75,126.001,320.721,126.001,256
	C126.001,216.667,143.268,180.329,173.542,155.506z M150.27,362.403c8.074,8.031,16.959,15.054,26.56,21.021l-60.829,40.557
	l-39.758-26.506L150.27,362.403z M126.001,441.352l71.069-47.385c6.372,2.728,12.931,5,19.628,6.813l-27.989,47.878l-62.708,36.057
	V441.352z M256.001,489.399l-46.915-35.969l28.395-48.573c6.134,0.756,12.337,1.143,18.52,1.143c6.184,0,12.387-0.387,18.519-1.143
	l28.395,48.573L256.001,489.399z M323.292,448.657l-27.99-47.881c7.029-1.903,13.92-4.312,20.616-7.231l70.083,45.062v46.108
	L323.292,448.657z M398.085,422.595l-61.904-39.798c9.228-5.838,17.776-12.657,25.561-20.403l74.02,35.081L398.085,422.595z
	 M403.626,81.682c0.967,3.213,3.481,5.727,6.694,6.694c21.342,6.423,35.681,25.562,35.681,47.624c0,8.402-2.254,16.638-6.699,24.478
	c-2.63,4.64-1.157,10.526,3.348,13.38c14.622,9.263,23.351,25.017,23.351,42.142c0,27.57-22.43,50-50,50
	c-3.478,0-6.909-0.364-10.267-1.064c0.176-2.985,0.267-5.97,0.267-8.936c0-41.595-16.728-80.287-46.407-108.505
	c21.392-10.447,26.407-22.509,26.407-31.495c0-18.924-21.221-33.978-60-42.772V70c0-4.33-0.408-8.637-1.196-12.87
	C333.684,49.923,344.577,46,356.001,46C378.064,46,397.203,60.339,403.626,81.682z M256.001,20c27.213,0,50,22.097,50,50
	c0,9.545,0,16.413,0,26c0,5.514-4.486,10-10,10c-5.523,0-10,4.478-10,10s4.477,10,10,10c16.542,0,30-13.458,30-30v-2.186
	c27.481,6.974,40,16.762,40,22.186c0,3.261-5.98,11.407-28.61,18.896C315.738,142.057,286.834,146,256.001,146
	s-59.737-3.943-81.388-11.104c-22.632-7.489-28.612-15.635-28.612-18.896c0-5.424,12.519-15.212,40-22.186V96
	c0,16.542,13.458,30,30,30c5.523,0,10-4.478,10-10s-4.477-10-10-10c-5.514,0-10-4.486-10-10c0-9.587,0-16.454,0-26
	C206.001,42.127,228.758,20,256.001,20z M69.353,173.857c4.505-2.854,5.978-8.74,3.348-13.38c-4.446-7.839-6.7-16.075-6.7-24.477
	c0-22.063,14.339-41.201,35.682-47.624c3.213-0.968,5.727-3.481,6.694-6.694C114.799,60.339,133.938,46,156.001,46
	c11.424,0,22.317,3.923,31.196,11.13c-0.789,4.234-1.196,8.54-1.196,12.87v3.228c-38.779,8.794-60,23.847-60,42.772
	c0,8.986,5.015,21.047,26.407,31.495c-29.679,28.217-46.407,66.91-46.407,108.505c0,2.965,0.092,5.95,0.267,8.936
	c-3.358,0.7-6.789,1.064-10.267,1.064c-27.57,0-50-22.43-50-50C46.001,198.875,54.73,183.121,69.353,173.857z"/>
<path d="M256.001,306c27.57,0,50-22.43,50-50s-22.43-50-50-50s-50,22.43-50,50S228.431,306,256.001,306z M256.001,226
	c16.542,0,30,13.458,30,30s-13.458,30-30,30s-30-13.458-30-30S239.459,226,256.001,226z"/>
<path d="M256.001,366c49.626,0,90-40.374,90-90c0-5.522-4.477-10-10-10s-10,4.478-10,10c0,38.598-31.402,70-70,70s-70-31.402-70-70
	c0-5.522-4.477-10-10-10s-10,4.478-10,10C166.001,325.626,206.375,366,256.001,366z"/>
<g>
</g>
<g>
</g>
<g>
</g>
<g>
</g>
<g>
</g>
<g>
</g>
<g>
</g>
<g>
</g>
<g>
</g>
<g>
</g>
<g>
</g>
<g>
</g>
<g>
</g>
<g>
</g>
<g>
</g>
</svg>
