<?xml version="1.0" encoding="iso-8859-1"?>
<!-- Generator: Adobe Illustrator 21.0.0, SVG Export Plug-In . SVG Version: 6.00 Build 0)  -->
<svg version="1.1" id="Capa_1" xmlns="http://www.w3.org/2000/svg" xmlns:xlink="http://www.w3.org/1999/xlink" x="0px" y="0px"
	 viewBox="0 0 512 512" style="enable-background:new 0 0 512 512;" xml:space="preserve">
<linearGradient id="SVGID_1_" gradientUnits="userSpaceOnUse" x1="74.9807" y1="439.0193" x2="437.0193" y2="76.9807" gradientTransform="matrix(1 0 0 -1 0 514)">
	<stop  offset="0" style="stop-color:#FFE230"/>
	<stop  offset="1" style="stop-color:#B59700"/>
</linearGradient>
<circle style="fill:url(#SVGID_1_);" cx="256" cy="256" r="256"/>
<linearGradient id="SVGID_2_" gradientUnits="userSpaceOnUse" x1="109.662" y1="258" x2="402.338" y2="258" gradientTransform="matrix(1 0 0 -1 0 514)">
	<stop  offset="0" style="stop-color:#5A5A5A"/>
	<stop  offset="1" style="stop-color:#292929"/>
</linearGradient>
<path style="fill:url(#SVGID_2_);" d="M256,89.5c-80.779,0-146.338,65.559-146.338,146.338V422.5h292.676V235.838
	C402.338,155.059,336.779,89.5,256,89.5z"/>
<path d="M285.268,322.665l39.023,99.835h9.756c16.195,0,29.268-14.374,29.268-30.568v-78.047L285.268,322.665z"/>
<path d="M148.686,313.885v78.047c0,16.194,13.073,30.568,29.268,30.568h9.756l39.023-99.835L148.686,313.885z"/>
<linearGradient id="SVGID_3_" gradientUnits="userSpaceOnUse" x1="148.686" y1="228.732" x2="363.314" y2="228.732" gradientTransform="matrix(1 0 0 -1 0 514)">
	<stop  offset="0" style="stop-color:#EDE9E8"/>
	<stop  offset="1" style="stop-color:#DFD7D5"/>
</linearGradient>
<path style="fill:url(#SVGID_3_);" d="M363.314,255.35v58.535c0,23.608-16.78,43.315-39.023,47.804V422.5h-39.023l-9.756-19.512
	l-9.756,19.512h-19.512l-9.756-19.512l-9.756,19.512h-39.023v-60.811c-22.244-4.489-39.023-24.196-39.023-47.804V255.35
	c0-59.316,47.999-107.314,107.314-107.314S363.314,196.033,363.314,255.35z"/>
<g>
	
		<linearGradient id="SVGID_4_" gradientUnits="userSpaceOnUse" x1="207" y1="239.139" x2="306.73" y2="239.139" gradientTransform="matrix(1 0 0 -1 0 514)">
		<stop  offset="0" style="stop-color:#5A5A5A"/>
		<stop  offset="1" style="stop-color:#292929"/>
	</linearGradient>
	<path style="fill:url(#SVGID_4_);" d="M216.977,304.129c-16.139,0-29.268-13.128-29.268-29.268s13.128-29.268,29.268-29.268
		s29.268,13.128,29.268,29.268S233.116,304.129,216.977,304.129z"/>
	
		<linearGradient id="SVGID_5_" gradientUnits="userSpaceOnUse" x1="207" y1="239.139" x2="306.73" y2="239.139" gradientTransform="matrix(1 0 0 -1 0 514)">
		<stop  offset="0" style="stop-color:#5A5A5A"/>
		<stop  offset="1" style="stop-color:#292929"/>
	</linearGradient>
	<path style="fill:url(#SVGID_5_);" d="M295.023,304.129c-16.139,0-29.268-13.128-29.268-29.268s13.128-29.268,29.268-29.268
		s29.268,13.128,29.268,29.268S311.163,304.129,295.023,304.129z"/>
	
		<linearGradient id="SVGID_6_" gradientUnits="userSpaceOnUse" x1="207" y1="200.114" x2="306.73" y2="200.114" gradientTransform="matrix(1 0 0 -1 0 514)">
		<stop  offset="0" style="stop-color:#5A5A5A"/>
		<stop  offset="1" style="stop-color:#292929"/>
	</linearGradient>
	<rect x="246.24" y="304.13" style="fill:url(#SVGID_6_);" width="19.512" height="19.512"/>
</g>
<rect x="226.73" y="362.66" width="19.512" height="59.836"/>
<rect x="265.76" y="362.66" width="19.512" height="59.836"/>
<g>
</g>
<g>
</g>
<g>
</g>
<g>
</g>
<g>
</g>
<g>
</g>
<g>
</g>
<g>
</g>
<g>
</g>
<g>
</g>
<g>
</g>
<g>
</g>
<g>
</g>
<g>
</g>
<g>
</g>
</svg>
