<?xml version="1.0" encoding="iso-8859-1"?>
<!-- Generator: Adobe Illustrator 21.0.0, SVG Export Plug-In . SVG Version: 6.00 Build 0)  -->
<svg version="1.1" id="Capa_1" xmlns="http://www.w3.org/2000/svg" xmlns:xlink="http://www.w3.org/1999/xlink" x="0px" y="0px"
	 viewBox="0 0 512 512" style="enable-background:new 0 0 512 512;" xml:space="preserve">
<linearGradient id="SVGID_1_" gradientUnits="userSpaceOnUse" x1="74.9807" y1="439.0193" x2="437.0193" y2="76.9807" gradientTransform="matrix(1 0 0 -1 0 514)">
	<stop  offset="0" style="stop-color:#00ABE9"/>
	<stop  offset="1" style="stop-color:#004FE3"/>
</linearGradient>
<circle style="fill:url(#SVGID_1_);" cx="256" cy="256" r="256"/>
<linearGradient id="SVGID_2_" gradientUnits="userSpaceOnUse" x1="148.024" y1="377.797" x2="363.976" y2="377.797" gradientTransform="matrix(1 0 0 -1 0 514)">
	<stop  offset="0" style="stop-color:#5A5A5A"/>
	<stop  offset="1" style="stop-color:#292929"/>
</linearGradient>
<path style="fill:url(#SVGID_2_);" d="M363.976,186.406H148.024l10.757-53.39C164.16,105.722,188.265,86,215.957,86
	c14.742,0,29.286,5.777,40.043,15.738C266.757,91.777,281.301,86,296.043,86c27.692,0,51.796,19.722,57.176,47.015L363.976,186.406z
	"/>
<path d="M426,235.414c0,10.757-6.043,26.496-31.145,41.039h-277.71C92.043,261.91,86,246.171,86,235.414
	c0-45.223,87.922-69.727,170-69.727S426,190.191,426,235.414z"/>
<path style="fill:#F6A96C;" d="M365.57,325.063h-19.922v-79.688h19.922c21.974,0,39.844,17.869,39.844,39.844
	S387.545,325.063,365.57,325.063z"/>
<path style="fill:#FFBD86;" d="M166.352,325.063H146.43c-21.974,0-39.844-17.869-39.844-39.844s17.869-39.844,39.844-39.844h19.922
	L166.352,325.063L166.352,325.063z"/>
<linearGradient id="SVGID_3_" gradientUnits="userSpaceOnUse" x1="146.429" y1="198.234" x2="365.57" y2="198.234" gradientTransform="matrix(1 0 0 -1 0 514)">
	<stop  offset="0" style="stop-color:#FEDDBB"/>
	<stop  offset="1" style="stop-color:#F6A96C"/>
</linearGradient>
<path style="fill:url(#SVGID_3_);" d="M365.57,229.039v86.063c0,42.434-24.304,80.617-59.766,98.746
	c-3.785,1.992-7.57-17.466-11.555-16.071c-2.788,0.997-5.577,23.243-8.367,24.039C276.321,424.406,266.36,426,256,426
	s-20.321-1.594-29.883-4.184c-2.191-0.597-4.184-22.645-6.176-23.242c-4.781-1.794-9.364,17.664-13.746,15.274
	c-35.462-18.13-59.766-56.313-59.766-98.746v-86.063l5.976-2.789c1.794-0.796,47.015-20.718,103.594-20.718
	s101.8,19.922,103.594,20.718L365.57,229.039z"/>
<linearGradient id="SVGID_4_" gradientUnits="userSpaceOnUse" x1="206.195" y1="130.6" x2="305.805" y2="130.6" gradientTransform="matrix(1 0 0 -1 0 514)">
	<stop  offset="0" style="stop-color:#5A5A5A"/>
	<stop  offset="1" style="stop-color:#292929"/>
</linearGradient>
<path style="fill:url(#SVGID_4_);" d="M305.805,344.984v68.864c-6.375,3.386-12.95,5.976-19.922,7.968v-56.91h-59.766v56.91
	c-6.972-1.992-13.547-4.582-19.922-7.968v-68.864H305.805z"/>
<rect x="226.12" y="265.3" width="59.766" height="19.922"/>
<g>
	
		<linearGradient id="SVGID_5_" gradientUnits="userSpaceOnUse" x1="160.33" y1="218.82" x2="339.07" y2="218.82" gradientTransform="matrix(1 0 0 -1 0 514)">
		<stop  offset="0" style="stop-color:#5A5A5A"/>
		<stop  offset="1" style="stop-color:#292929"/>
	</linearGradient>
	<path style="fill:url(#SVGID_5_);" d="M196.234,325.063c-27.461,0-49.805-22.344-49.805-49.805v-9.961h99.609v9.961
		C246.039,302.718,223.695,325.063,196.234,325.063z"/>
	
		<linearGradient id="SVGID_6_" gradientUnits="userSpaceOnUse" x1="160.33" y1="218.82" x2="339.07" y2="218.82" gradientTransform="matrix(1 0 0 -1 0 514)">
		<stop  offset="0" style="stop-color:#5A5A5A"/>
		<stop  offset="1" style="stop-color:#292929"/>
	</linearGradient>
	<path style="fill:url(#SVGID_6_);" d="M315.766,325.063c-27.461,0-49.805-22.344-49.805-49.805v-9.961h99.609v9.961
		C365.57,302.718,343.226,325.063,315.766,325.063z"/>
</g>
<g>
</g>
<g>
</g>
<g>
</g>
<g>
</g>
<g>
</g>
<g>
</g>
<g>
</g>
<g>
</g>
<g>
</g>
<g>
</g>
<g>
</g>
<g>
</g>
<g>
</g>
<g>
</g>
<g>
</g>
</svg>
