<?xml version="1.0" encoding="iso-8859-1"?>
<!-- Generator: Adobe Illustrator 19.0.0, SVG Export Plug-In . SVG Version: 6.00 Build 0)  -->
<svg version="1.1" id="Capa_1" xmlns="http://www.w3.org/2000/svg" xmlns:xlink="http://www.w3.org/1999/xlink" x="0px" y="0px"
	 viewBox="0 0 512 512" style="enable-background:new 0 0 512 512;" xml:space="preserve">
<polygon style="fill:#B7E4F8;" points="277.335,296.844 169.758,296.844 169.758,398.142 96.415,398.142 96.415,428.142 
	256,428.142 "/>
<polygon style="fill:#85D1F3;" points="256,296.844 342.243,296.844 342.243,398.142 415.587,398.142 415.587,428.142 256,428.142 
	"/>
<polygon style="fill:#DBF1FB;" points="39.146,136.864 39.146,326.844 256,326.844 288,213.334 256,106.864 "/>
<g>
	<polygon style="fill:#B7E4F8;" points="472.853,136.864 256,106.864 256,326.844 472.853,326.844 	"/>
	<path style="fill:#B7E4F8;" d="M104.147,0c-35.841,0-65,29.159-65,65v71.864H256l21.333-62.197L256,0H104.147z"/>
</g>
<path style="fill:#85D1F3;" d="M472.853,65c0-35.841-29.159-65-65-65H256v136.864h216.853V65z"/>
<path style="fill:#FFFFFF;" d="M161.012,282.475c-27.913,0-50.622-22.709-50.622-50.621c0-27.913,22.709-50.621,50.622-50.621
	c27.912,0,50.621,22.708,50.621,50.621C211.633,259.766,188.924,282.475,161.012,282.475z"/>
<circle style="fill:#9BD9F5;" cx="96.411" cy="455.07" r="41.929"/>
<path style="fill:#4BBAED;" d="M96.415,497c23.157,0,41.929-18.772,41.929-41.929s-18.772-41.929-41.929-41.929V497z"/>
<path style="fill:#19A2E0;" d="M69.485,455.071c0-14.849,12.081-26.929,26.93-26.929l10.001-14.99l-10.001-15.01
	c-31.392,0-56.93,25.539-56.93,56.929S65.023,512,96.415,512l10.001-15.011L96.415,482C81.566,482,69.485,469.919,69.485,455.071z"
	/>
<path style="fill:#116F99;" d="M153.344,455.071c0-31.391-25.538-56.929-56.929-56.929v30c14.849,0,26.929,12.081,26.929,26.929
	S111.264,482,96.415,482v30C127.806,512,153.344,486.461,153.344,455.071z"/>
<circle style="fill:#9BD9F5;" cx="415.59" cy="455.07" r="41.929"/>
<path style="fill:#4BBAED;" d="M415.587,497c23.157,0,41.929-18.772,41.929-41.929s-18.772-41.929-41.929-41.929L415.587,497
	L415.587,497z"/>
<path style="fill:#19A2E0;" d="M388.658,455.071c0-14.849,12.081-26.929,26.93-26.929l10.001-15l-10.001-15
	c-31.392,0-56.93,25.539-56.93,56.929S384.197,512,415.587,512l10.001-15l-10.001-15C400.74,482,388.658,469.919,388.658,455.071z"
	/>
<path style="fill:#116F99;" d="M472.516,455.071c0-31.391-25.538-56.929-56.929-56.929v30c14.849,0,26.929,12.081,26.929,26.929
	S430.436,482,415.587,482v30C446.978,512,472.516,486.461,472.516,455.071z"/>
<path style="fill:#19A2E0;" d="M161.012,181.233c-27.913,0-50.622,22.708-50.622,50.621c0,4.667,0.648,9.185,1.837,13.479
	L160.001,256l49.795-10.667c1.188-4.295,1.837-8.812,1.837-13.479C211.633,203.941,188.924,181.233,161.012,181.233z"/>
<path style="fill:#9BD9F5;" d="M161.012,282.475c23.244,0,42.867-15.754,48.784-37.142h-97.57
	C118.144,266.721,137.767,282.475,161.012,282.475z"/>
<path style="fill:#116F99;" d="M350.99,181.233c27.913,0,50.622,22.708,50.622,50.621c0,4.667-0.648,9.185-1.837,13.479L352,256
	l-49.795-10.667c-1.188-4.295-1.837-8.812-1.837-13.479C300.369,203.941,323.078,181.233,350.99,181.233z"/>
<path style="fill:#4BBAED;" d="M350.99,282.475c-23.244,0-42.867-15.754-48.784-37.142h97.57
	C393.858,266.721,374.235,282.475,350.99,282.475z"/>
<g>
</g>
<g>
</g>
<g>
</g>
<g>
</g>
<g>
</g>
<g>
</g>
<g>
</g>
<g>
</g>
<g>
</g>
<g>
</g>
<g>
</g>
<g>
</g>
<g>
</g>
<g>
</g>
<g>
</g>
</svg>
