<?xml version="1.0" encoding="iso-8859-1"?>
<!-- Generator: Adobe Illustrator 19.0.0, SVG Export Plug-In . SVG Version: 6.00 Build 0)  -->
<svg version="1.1" id="Capa_1" xmlns="http://www.w3.org/2000/svg" xmlns:xlink="http://www.w3.org/1999/xlink" x="0px" y="0px"
	 viewBox="0 0 512 512" style="enable-background:new 0 0 512 512;" xml:space="preserve">
<path style="fill:#EDE9E8;" d="M91,331L31.901,492.199c-1.802,4.501-0.901,9.6,1.8,13.5C36.7,509.599,41.201,512,46,512h162.299
	L91,331z"/>
<path style="fill:#DFD7D5;" d="M480.099,492.199L421,331L303.701,512H466c4.799,0,9.3-2.401,12.299-6.301
	C481,501.799,481.901,496.7,480.099,492.199z"/>
<path style="fill:#99503D;" d="M421,322.299v71.4c0,12.001-4.799,23.101-13.2,31.8L335.501,498.8
	c-8.701,8.399-19.801,13.2-31.8,13.2h-95.402c-11.999,0-23.099-4.801-31.8-13.2L104.2,425.499C95.799,416.8,91,405.7,91,393.699
	v-71.4l30-42.599l75,105l19.501-19.2c2.699-3,6.599-4.5,10.499-4.5h60c3.9,0,7.8,1.5,10.499,4.499l19.501,19.2l75-105L421,322.299z"
	/>
<path style="fill:#804231;" d="M391,279.699l30,42.599v71.4c0,12.001-4.799,23.101-13.2,31.8L335.501,498.8
	c-8.701,8.399-19.801,13.2-31.8,13.2H256V361h30c3.9,0,7.8,1.5,10.499,4.499l19.501,19.2L391,279.699z"/>
<path style="fill:#F89580;" d="M436,301h-15l-30-45l30-45h15c24.853,0,45,20.147,45,45l0,0C481,280.853,460.853,301,436,301z"/>
<path style="fill:#FFA78F;" d="M91,301H76c-24.853,0-45-20.147-45-45l0,0c0-24.853,20.147-45,45-45h15l30,45L91,301z"/>
<path style="fill:#FFCEBF;" d="M421,226v96.299l-94.501,94.2C323.8,419.5,319.9,421,316,421s-7.8-1.5-10.499-4.501L279.699,391
	H232.3l-12,11.999l-13.801,13.5c-5.7,6-15.298,6-20.999,0l-94.5-94.2V226c0-5.101,0.3-10.201,0.901-15L166,181
	c38.101,0,71.7-20.4,90-51c18.3,30.601,51.899,51,90,51l74.099,30C420.7,215.799,421,220.899,421,226z"/>
<path style="fill:#FFBFAB;" d="M421,226v96.299l-94.501,94.2C323.8,419.5,319.9,421,316,421s-7.8-1.5-10.499-4.501L279.699,391H256
	V130c18.3,30.601,51.899,51,90,51l74.099,30C420.7,215.799,421,220.899,421,226z"/>
<circle style="fill:#582B1F;" cx="195.97" cy="286" r="15"/>
<circle style="fill:#3C1B13;" cx="315.97" cy="286" r="15"/>
<g>
	<path style="fill:#FFA78F;" d="M286,436c0,8.399-6.599,15-15,15h-30c-8.401,0-15-6.601-15-15c0-8.401,6.599-15,15-15h30
		C279.401,421,286,427.599,286,436z"/>
	<path style="fill:#FFA78F;" d="M271,346c0,8.399-6.599,15-15,15s-15,6.599-15,15c0,8.399,6.599,15,15,15h-23.699L220.3,402.999
		c-6-7.5-9.3-16.8-9.3-26.999c0-24.901,20.099-45,45-45C264.401,331,271,337.599,271,346z"/>
</g>
<g>
	<path style="fill:#F89580;" d="M271,346c0,8.399-6.599,15-15,15v-30C264.401,331,271,337.599,271,346z"/>
	<path style="fill:#F89580;" d="M286,436c0,8.399-6.599,15-15,15h-15v-30h15C279.401,421,286,427.599,286,436z"/>
</g>
<path style="fill:#804231;" d="M420.099,211H346c-38.101,0-71.7-20.4-90-51c-18.3,30.601-51.899,51-90,51H91.901
	c0.899-10.201,2.699-20.4,5.4-30C117.1,112,180.7,61,256,61s138.9,51,158.699,120C417.4,190.6,419.2,200.799,420.099,211z"/>
<path style="fill:#663325;" d="M420.099,211H346c-38.101,0-71.7-20.4-90-51V61c75.3,0,138.9,51,158.699,120
	C417.4,190.6,419.2,200.799,420.099,211z"/>
<path style="fill:#FFD400;" d="M256,0C175.901,0,91,27.4,91,76s84.901,75,165,75s165-26.4,165-75S336.099,0,256,0z M256,121
	c-82.5,0-135-26.7-135-45s52.5-46,135-46s135,27.7,135,46S338.5,121,256,121z"/>
<path style="fill:#FDBF00;" d="M421,76c0,48.6-84.901,75-165,75v-30c82.5,0,135-26.7,135-45s-52.5-46-135-46V0
	C336.099,0,421,27.4,421,76z"/>
<g>
</g>
<g>
</g>
<g>
</g>
<g>
</g>
<g>
</g>
<g>
</g>
<g>
</g>
<g>
</g>
<g>
</g>
<g>
</g>
<g>
</g>
<g>
</g>
<g>
</g>
<g>
</g>
<g>
</g>
</svg>
