<?xml version="1.0" encoding="iso-8859-1"?>
<!-- Generator: Adobe Illustrator 21.0.0, SVG Export Plug-In . SVG Version: 6.00 Build 0)  -->
<svg version="1.1" id="Capa_1" xmlns="http://www.w3.org/2000/svg" xmlns:xlink="http://www.w3.org/1999/xlink" x="0px" y="0px"
	 viewBox="0 0 512 512" style="enable-background:new 0 0 512 512;" xml:space="preserve">
<g>
	<g transform="translate(1 1)">
		<path style="fill:#7FABFA;" d="M502.467,476.867v25.6H7.533v-25.6c1.125-31.3,21.676-58.566,51.456-68.267
			c29.128-9.36,57.558-20.766,85.077-34.133l18.091-16.725l2.901-2.731c2.614-3.484,7.432-4.44,11.179-2.219l50.347,21.675h56.832
			l38.827-16.725l11.52-4.949c3.746-2.222,8.565-1.265,11.179,2.219l20.992,19.456l1.024,0.512
			c27.194,13.167,55.281,24.402,84.053,33.621C480.79,418.301,501.342,445.567,502.467,476.867z"/>
		<path style="fill:#A4C2F7;" d="M476.867,476.867v25.6H7.533v-25.6c1.125-31.3,21.676-58.566,51.456-68.267
			c29.128-9.36,57.558-20.766,85.077-34.133l18.091-16.725l38.827,16.725h56.832l50.347-21.675
			c3.746-2.222,8.565-1.265,11.179,2.219l2.901,2.731l18.091,16.725l1.024,0.512c27.194,13.167,55.281,24.402,84.053,33.621
			C455.19,418.301,475.742,445.567,476.867,476.867z"/>
		<polygon style="fill:#4482C3;" points="365.933,374.467 306.2,434.2 293.912,423.96 255,391.533 216.088,423.96 203.8,434.2 
			144.067,374.467 		"/>
		<polygon style="fill:#7FABFA;" points="186.733,502.467 152.6,502.467 118.467,468.333 135.533,451.267 101.4,434.2 
			126.573,398.872 144.067,374.467 		"/>
		<polygon style="fill:#D4E1F4;" points="237.933,451.267 220.867,502.467 186.733,502.467 144.067,374.467 203.8,434.2 
			216.088,423.96 		"/>
		<path style="fill:#E3E7F2;" d="M332.141,345.283c-3.669-21.675-6.571-45.227-8.021-57.003v-8.619H185.88c0,0-0.085,8.533,0,8.619
			c-1.451,11.776-4.352,35.328-8.021,57.003l72.875,76.8L332.141,345.283z"/>
		<path style="fill:#D4E1F4;" d="M365.933,92.867c0,34.133-17.067,93.867-17.067,93.867c-4.091,19.713-6.941,39.663-8.533,59.733
			c2.13,16.224-4.335,32.388-17.067,42.667l-43.691,43.691c-4.804,4.79-11.306,7.489-18.091,7.509h-12.971
			c-2.135,0.016-4.261-0.271-6.315-0.853c-4.455-1.114-8.524-3.414-11.776-6.656l-43.691-43.691
			c-12.732-10.279-19.197-26.443-17.067-42.667c-1.592-20.07-4.442-40.02-8.533-59.733c0,0-17.067-59.733-17.067-93.867
			c0-32.171,29.867-79.531,98.133-84.821c4.096-0.341,8.363-0.512,12.8-0.512C331.8,7.533,365.933,58.733,365.933,92.867z"/>
		<path style="fill:#E3E7F2;" d="M340.333,92.867c0,34.133-17.067,93.867-17.067,93.867c-4.091,19.713-6.941,39.663-8.533,59.733
			c2.13,16.224-4.335,32.388-17.067,42.667l-43.691,43.691c-3.252,3.242-7.321,5.542-11.776,6.656
			c-4.455-1.114-8.524-3.414-11.776-6.656l-43.691-43.691c-12.732-10.279-19.197-26.443-17.067-42.667
			c-1.592-20.07-4.442-40.02-8.533-59.733c0,0-17.067-59.733-17.067-93.867c0-32.171,29.867-79.531,98.133-84.821
			C310.04,13.336,340.333,60.696,340.333,92.867z"/>
		<path style="fill:#7FABFA;" d="M365.933,92.867c0,34.133-17.067,93.867-17.067,93.867c-6.638-13.7-11.733-28.096-15.189-42.923
			c-1.154-5.532-1.782-11.16-1.877-16.811c0-25.6-8.533-42.667-34.133-42.667c-4.923-0.061-9.839,0.367-14.677,1.28
			c-11.947,2.304-15.019,7.253-27.989,7.253c-4.36,0.066-8.697-0.657-12.8-2.133c-9.3-4.492-19.542-6.687-29.867-6.4
			c-3.681-0.046-7.352,0.384-10.923,1.28C184.259,89.965,178.2,105.496,178.2,127c0,25.6-17.067,59.733-17.067,59.733
			s-5.632-19.712-10.411-42.923c-3.804-16.736-6.032-33.792-6.656-50.944c0-32.171,29.867-79.531,98.133-84.821
			c4.096-0.341,8.363-0.512,12.8-0.512C331.8,7.533,365.933,58.733,365.933,92.867z"/>
		<g>
			<path style="fill:#A4C2F7;" d="M340.333,92.867c-0.624,17.152-2.852,34.208-6.656,50.944c-1.154-5.532-1.782-11.16-1.877-16.811
				c0-25.6-8.533-42.667-34.133-42.667c-4.923-0.061-9.839,0.367-14.677,1.28c-3.57-0.896-7.242-1.326-10.923-1.28
				c-10.324-0.287-20.567,1.908-29.867,6.4c-4.103,1.477-8.44,2.199-12.8,2.133c-12.971,0-16.043-4.949-27.989-7.253
				c-4.838-0.913-9.755-1.341-14.677-1.28c-25.6,0-34.133,17.067-34.133,42.667c-0.095,5.65-0.724,11.279-1.877,16.811
				c-3.804-16.736-6.032-33.792-6.656-50.944c0-32.171,29.867-79.531,98.133-84.821C310.04,13.336,340.333,60.696,340.333,92.867z"
				/>
			<g>
				<path style="fill:#A4C2F7;" d="M255,391.533L242.2,402.2l-26.112,21.76L203.8,434.2l-11.605-11.605l37.205-31.061
					l-28.416-17.067l-39.253-23.552l3.328-4.437c2.614-3.484,7.432-4.44,11.179-2.219l50.347,30.208l15.616,9.387L255,391.533z"/>
				<polygon style="fill:#A4C2F7;" points="229.4,391.533 192.195,422.595 144.067,374.467 161.731,350.915 200.984,374.467 				"/>
				<path style="fill:#A4C2F7;" d="M365.933,374.467L306.2,434.2l-12.288-10.24l-1.707-1.365L255,391.533l28.416-17.067
					l39.253-23.552l11.093-6.656c3.746-2.222,8.565-1.265,11.179,2.219L365.933,374.467z"/>
			</g>
		</g>
		<g>
			<g>
				<polygon style="fill:#D4E1F4;" points="229.4,391.533 192.195,422.595 144.067,374.467 161.731,350.915 200.984,374.467 				"/>
				<polygon style="fill:#D4E1F4;" points="340.333,374.467 292.205,422.595 255,391.533 283.416,374.467 322.669,350.915 				"/>
			</g>
			<polygon style="fill:#D4E1F4;" points="365.933,374.467 323.267,502.467 289.133,502.467 272.067,451.267 293.912,423.96 
				306.2,434.2 			"/>
		</g>
		<g>
			<polygon style="fill:#F4F4F4;" points="212.333,451.267 195.267,502.467 186.733,502.467 156.867,412.867 178.2,434.2 
				190.488,423.96 			"/>
			<polygon style="fill:#F4F4F4;" points="327.533,412.867 297.667,502.467 289.133,502.467 272.067,451.267 293.912,423.96 
				306.2,434.2 			"/>
		</g>
		<polygon style="fill:#7FABFA;" points="375.149,451.267 392.216,468.333 358.083,502.467 323.267,502.467 365.933,374.467 
			366.957,374.979 409.283,434.2 		"/>
		<g>
			<polygon style="fill:#A4C2F7;" points="161.133,502.467 152.6,502.467 118.467,468.333 135.533,451.267 101.4,434.2 
				126.573,398.872 			"/>
			<polygon style="fill:#A4C2F7;" points="349.549,451.267 366.616,468.333 332.483,502.467 323.267,502.467 357.997,398.275 
				383.683,434.2 			"/>
		</g>
		<path style="fill:#285680;" d="M366.957,374.979l-0.341-0.512"/>
		<g>
			<polygon style="fill:#A4C2F7;" points="289.133,502.467 220.867,502.467 237.933,451.267 272.067,451.267 			"/>
			<polygon style="fill:#A4C2F7;" points="293.912,423.96 272.067,451.267 237.933,451.267 216.088,423.96 242.2,402.2 255,391.533 
							"/>
		</g>
		<g>
			<polygon style="fill:#E3E7F2;" points="263.533,502.467 220.867,502.467 237.933,451.267 246.467,451.267 			"/>
			<polygon style="fill:#E3E7F2;" points="268.312,423.96 246.467,451.267 237.933,451.267 216.088,423.96 242.2,402.2 			"/>
		</g>
		<path style="fill:#FFFFFF;" d="M84.589,408.6c29.128-9.36,57.558-20.766,85.077-34.133l17.664-23.552l3.328-4.437
			c2.614-3.484,7.432-4.44,11.179-2.219l1.63,0.981c3.669-21.666,6.562-45.227,8.013-56.96v-0.068
			c-12.165-10.243-18.276-25.976-16.213-41.745c-1.592-20.07-4.442-40.02-8.533-59.733l-0.205-0.717l-0.205-0.742l-0.427-1.562
			l-0.316-1.161c-0.205-0.759-0.427-1.57-0.674-2.509l-0.418-1.579l-0.853-3.413l-0.461-1.809c-0.35-1.365-0.717-2.825-1.101-4.352
			c-0.145-0.606-0.29-1.169-0.444-1.801c-0.512-2.074-1.033-4.267-1.57-6.519l-0.077-0.341c-1.195-5.069-2.423-10.59-3.61-16.341
			v-0.111v-0.171c-0.785-3.797-1.536-7.68-2.244-11.605c-0.119-0.64-0.239-1.263-0.35-1.903c-0.657-3.729-1.246-7.45-1.775-11.136
			c-0.137-0.93-0.265-1.843-0.393-2.765c-0.503-3.703-0.913-7.33-1.229-10.837c-0.06-0.674-0.094-1.306-0.145-1.963
			c-0.375-3.661-0.572-7.236-0.572-10.53c0-32.145,29.867-79.445,97.98-84.804c-4.113-0.316-8.277-0.529-12.646-0.529
			s-8.704,0.171-12.8,0.512c-68.267,5.291-98.133,52.651-98.133,84.821c0,3.294,0.196,6.827,0.486,10.564
			c0.051,0.657,0.085,1.289,0.145,1.963c0.316,3.507,0.725,7.134,1.229,10.837c0.128,0.922,0.256,1.835,0.393,2.765
			c0.529,3.686,1.118,7.407,1.775,11.136c0.111,0.64,0.23,1.263,0.35,1.903c0.708,3.917,1.459,7.808,2.244,11.605v0.171v0.111
			c1.186,5.751,2.415,11.273,3.61,16.341l0.077,0.341c0.538,2.278,1.058,4.446,1.57,6.519c0.154,0.631,0.299,1.195,0.444,1.801
			c0.384,1.527,0.751,2.987,1.101,4.352l0.461,1.809l0.853,3.413l0.418,1.579c0.247,0.939,0.469,1.707,0.674,2.509l0.316,1.161
			l0.427,1.562l0.205,0.742l0.29,0.683c4.091,19.713,6.941,39.663,8.533,59.733c-2.063,15.769,4.048,31.502,16.213,41.745v0.068
			c-1.451,11.767-4.343,35.294-8.013,56.96l-1.63-0.981c-3.746-2.222-8.565-1.265-11.179,2.219l-3.328,4.437l-17.664,23.552
			c-27.52,13.368-55.95,24.774-85.077,34.133c-29.78,9.701-50.331,36.967-51.456,68.267v25.6h25.6v-25.6
			C34.258,445.567,54.81,418.301,84.589,408.6z"/>
	</g>
	<g>
		<polygon style="fill:#FFFFFF;" points="8.533,494.933 119.467,494.933 503.467,494.933 503.467,512 119.467,512 8.533,512 		"/>
		<g>
			<path style="fill:#428DFF;" d="M76.8,494.933c-2.259,0.033-4.422,0.917-6.059,2.475l-1.024,1.28
				c-0.323,0.476-0.582,0.992-0.768,1.536c-0.247,0.484-0.419,1.001-0.512,1.536c-0.095,0.564-0.152,1.135-0.171,1.707
				c0.033,2.259,0.917,4.422,2.475,6.059c0.816,0.771,1.772,1.38,2.816,1.792c3.183,1.288,6.825,0.586,9.301-1.792
				c0.771-0.816,1.38-1.772,1.792-2.816c0.437-1.026,0.669-2.128,0.683-3.243c0.023-2.27-0.869-4.454-2.474-6.059
				C81.254,495.802,79.07,494.91,76.8,494.933z"/>
			<path style="fill:#428DFF;" d="M454.707,401.502c-28.021-9.001-55.392-19.912-81.92-32.657c-0.213-0.171-0.375-0.418-0.597-0.563
				l-19.43-25.907c-3.025-4.034-7.687-6.514-12.723-6.767c-2.56-16.563-4.702-33.118-5.973-43.52
				c11.842-11.657,17.669-28.109,15.804-44.621c1.566-19.405,4.339-38.693,8.303-57.754c1.323-4.642,17.297-61.628,17.297-95.846
				C375.467,54.895,338.398,0,256,0S136.533,54.895,136.533,93.867c0,34.219,15.974,91.204,17.297,95.846
				c3.964,19.06,6.737,38.349,8.303,57.754c-1.865,16.511,3.962,32.964,15.804,44.621c-1.289,10.402-3.413,26.948-5.973,43.52
				c-5.037,0.256-9.699,2.739-12.723,6.775l-19.746,26.325c-26.605,12.81-54.063,23.77-82.176,32.802
				C24.193,412.567,1.369,442.972,0,477.867v25.6C0,508.18,3.821,512,8.533,512h34.133c4.713,0,8.533-3.82,8.533-8.533
				c0-4.713-3.821-8.533-8.533-8.533h-25.6v-17.067c1.17-27.605,19.348-51.585,45.611-60.169
				c21.009-6.98,39.953-14.026,56.832-21.137l-24.055,33.681c-1.451,2.031-1.94,4.597-1.338,7.02
				c0.602,2.423,2.236,4.46,4.469,5.576l23.543,11.767l-8.695,8.695c-3.331,3.332-3.331,8.734,0,12.066l19.567,19.567h-22.067
				c-4.713,0-8.533,3.821-8.533,8.533c0,4.713,3.821,8.533,8.533,8.533h392.533c4.713,0,8.533-3.82,8.533-8.533v-25.6
				C510.638,442.975,487.825,412.568,454.707,401.502z M370.142,458.3l11.034,11.034l-25.6,25.6h-19.465l33.843-101.547
				l27.605,38.647l-25.199,12.595c-2.449,1.228-4.159,3.556-4.599,6.26c-0.439,2.704,0.446,5.454,2.38,7.394V458.3z
				 M296.286,494.933l-13.653-40.96l13.474-16.879l5.606,4.668c3.392,2.822,8.376,2.592,11.494-0.529l34.202-34.193l-29.295,87.893
				H296.286z M193.886,494.933l-29.295-87.893l34.133,34.176c3.118,3.122,8.102,3.351,11.494,0.529l5.606-4.668l13.542,16.896
				l-13.653,40.96H193.886z M225.391,339.857c6.412,6.379,15.079,9.975,24.124,10.01h12.971c9.045-0.034,17.712-3.631,24.124-10.01
				l32.222-32.222c1.331,10.146,3.021,22.323,4.949,34.278L256,382.583l-67.78-40.67c1.929-11.947,3.618-24.132,4.949-34.278
				L225.391,339.857z M256,403.627l27.025,22.519l-14.063,17.587h-25.924l-14.063-17.57L256,403.627z M245.086,460.8h21.828
				l11.375,34.133h-44.578L245.086,460.8z M355.669,374.665l-48.998,48.99l-6.417-5.35l-29.534-24.619l66.901-40.107l0.213-0.128
				l1.314-0.794L355.669,374.665z M339.123,352.606l6.827-5.12L339.123,352.606z M164.002,160.7
				c-5.705-21.871-9.19-44.262-10.402-66.833c0-31.889,31.77-76.8,102.4-76.8c69.854,0,102.4,45.824,102.4,76.8
				c-1.218,22.576-4.703,44.972-10.402,66.85c-3.9-10.495-6.148-21.532-6.665-32.717c0-42.317-23.202-51.2-42.667-51.2
				c-10.073-0.366-20.1,1.526-29.346,5.538c-8.431,3.993-18.21,3.993-26.641,0c-9.246-4.012-19.273-5.904-29.346-5.538
				c-19.465,0-42.667,8.883-42.667,51.2C170.147,139.179,167.899,150.209,164.002,160.7z M187.733,128
				c0-30.003,12.305-34.133,25.6-34.133c7.859-0.372,15.697,1.089,22.895,4.267c12.57,5.677,26.974,5.677,39.543,0
				c7.198-3.178,15.036-4.639,22.895-4.267c13.295,0,25.6,4.13,25.6,34.133c1.654,21.166,7.316,41.825,16.683,60.877
				c-4.028,19.325-6.751,38.899-8.149,58.59c0,16.512,0,22.067-14.566,36.634l-43.691,43.691c-3.205,3.189-7.536,4.988-12.058,5.009
				h-12.971c-4.521-0.021-8.852-1.821-12.058-5.009L193.766,284.1c-0.282-0.29-0.478-0.521-0.751-0.802l-0.213-0.213
				c-13.5-13.773-13.602-19.524-13.602-35.618c-1.399-19.691-4.121-39.265-8.149-58.59C180.418,169.825,186.079,149.166,187.733,128
				z M172.877,352.606l1.289,0.777l0.273,0.162l66.867,40.107l-29.534,24.619l-6.417,5.35l-49.024-48.956L172.877,352.606z
				 M131.533,469.333l11.034-11.034c1.934-1.94,2.819-4.69,2.38-7.394s-2.15-5.032-4.599-6.26l-25.199-12.595l27.119-37.973
				l33.621,100.855h-18.773L131.533,469.333z M494.933,494.933h-115.2l19.567-19.567c3.331-3.332,3.331-8.734,0-12.066l-8.704-8.695
				l23.552-11.767c2.232-1.117,3.864-3.155,4.465-5.578s0.111-4.987-1.341-7.017l-23.757-33.28
				c16.589,6.946,35.197,13.852,55.825,20.719c26.37,8.438,44.611,32.516,45.594,60.186V494.933z"/>
		</g>
	</g>
</g>
<g>
</g>
<g>
</g>
<g>
</g>
<g>
</g>
<g>
</g>
<g>
</g>
<g>
</g>
<g>
</g>
<g>
</g>
<g>
</g>
<g>
</g>
<g>
</g>
<g>
</g>
<g>
</g>
<g>
</g>
</svg>
