<?xml version="1.0" encoding="iso-8859-1"?>
<!-- Generator: Adobe Illustrator 19.0.0, SVG Export Plug-In . SVG Version: 6.00 Build 0)  -->
<svg version="1.1" id="Capa_1" xmlns="http://www.w3.org/2000/svg" xmlns:xlink="http://www.w3.org/1999/xlink" x="0px" y="0px"
	 viewBox="0 0 512.003 512.003" style="enable-background:new 0 0 512.003 512.003;" xml:space="preserve">
<path style="fill:#4398D1;" d="M365.926,241.97c-9.992-86.612-88.31-148.716-174.922-138.724
	c-79.734,9.207-139.876,76.765-139.765,157.028c0,1.442-42.666,98.132-42.666,98.132h42.666v68.266
	c0,18.85,15.283,34.133,34.133,34.133h51.199v51.199h187.73v-23.535c0.87-59.758,12.151-118.901,33.331-174.785
	C365.909,290.746,368.742,266.196,365.926,241.97z"/>
<path style="fill:#3F8FC4;" d="M365.926,241.962c-4.676-39.927-24.439-76.56-55.235-102.398
	c-15.727,221.112-105.59,327.461-173.992,372.44h187.602v-23.535c0.87-59.758,12.151-118.901,33.331-174.785
	C365.909,290.746,368.742,266.188,365.926,241.962z"/>
<g>
	<path id="SVGCleanerId_0" style="fill:#87CED9;" d="M479.964,162.142c23.97-17.937,30.566-51.046,15.309-76.799
		c-15.778-25.873-47.888-36.642-76.073-25.506c-5.7-33.561-37.529-56.14-71.09-50.44c-25.821,4.386-46.054,24.618-50.44,50.44
		c-28.185-11.136-60.296-0.367-76.073,25.506c-15.257,25.753-8.661,58.862,15.309,76.799c-23.97,17.937-30.566,51.046-15.309,76.799
		c15.778,25.873,47.888,36.642,76.073,25.506c5.7,33.561,37.529,56.14,71.09,50.44c25.821-4.386,46.054-24.618,50.44-50.44
		c28.185,11.136,60.296,0.367,76.073-25.506C510.53,213.188,503.925,180.079,479.964,162.142z"/>
</g>
<g>
	<path id="SVGCleanerId_0_1_" style="fill:#87CED9;" d="M479.964,162.142c23.97-17.937,30.566-51.046,15.309-76.799
		c-15.778-25.873-47.888-36.642-76.073-25.506c-5.7-33.561-37.529-56.14-71.09-50.44c-25.821,4.386-46.054,24.618-50.44,50.44
		c-28.185-11.136-60.296-0.367-76.073,25.506c-15.257,25.753-8.661,58.862,15.309,76.799c-23.97,17.937-30.566,51.046-15.309,76.799
		c15.778,25.873,47.888,36.642,76.073,25.506c5.7,33.561,37.529,56.14,71.09,50.44c25.821-4.386,46.054-24.618,50.44-50.44
		c28.185,11.136,60.296,0.367,76.073-25.506C510.53,213.188,503.925,180.079,479.964,162.142z"/>
</g>
<g>
	<path id="SVGCleanerId_0_2_" style="fill:#87CED9;" d="M479.964,162.142c23.97-17.937,30.566-51.046,15.309-76.799
		c-15.778-25.873-47.888-36.642-76.073-25.506c-5.7-33.561-37.529-56.14-71.09-50.44c-25.821,4.386-46.054,24.618-50.44,50.44
		c-28.185-11.136-60.296-0.367-76.073,25.506c-15.257,25.753-8.661,58.862,15.309,76.799c-23.97,17.937-30.566,51.046-15.309,76.799
		c15.778,25.873,47.888,36.642,76.073,25.506c5.7,33.561,37.529,56.14,71.09,50.44c25.821-4.386,46.054-24.618,50.44-50.44
		c28.185,11.136,60.296,0.367,76.073-25.506C510.53,213.188,503.925,180.079,479.964,162.142z"/>
</g>
<g>
	<path style="fill:#266599;" d="M136.571,307.207c-18.85,0-34.133-15.283-34.133-34.133s15.283-34.133,34.133-34.133
		s34.133,15.283,34.133,34.133S155.421,307.207,136.571,307.207z M136.571,256.007c-9.429,0-17.066,7.637-17.066,17.066
		s7.637,17.066,17.066,17.066s17.066-7.637,17.066-17.066C153.637,263.653,145.992,256.007,136.571,256.007z"/>
	<rect x="51.196" y="383.997" style="fill:#266599;" width="42.666" height="17.066"/>
</g>
<path style="fill:#7DC6D1;" d="M479.964,162.142c23.97-17.937,30.566-51.046,15.309-76.799
	c-10.189-16.921-27.895-27.912-47.581-29.516c-15.104,92.218-66.943,174.384-143.673,227.725
	c10.82,19.942,31.735,32.307,54.416,32.187c30.165,0.324,56.02-21.495,60.765-51.293c28.185,11.136,60.296,0.367,76.073-25.506
	C510.53,213.188,503.925,180.079,479.964,162.142z"/>
<g>
	<path style="fill:#4398D1;" d="M366.967,213.341h-17.066v-10.001c0.051-17.706,7.083-34.679,19.567-47.231l5-5
		c6.11-6.144,9.54-14.438,9.566-23.099c0-14.139-11.46-25.6-25.6-25.6c-14.14,0-25.6,11.46-25.6,25.6v8.533h-17.066v-8.533
		c0-23.56,19.106-42.666,42.666-42.666S401.1,104.449,401.1,128.01c-0.034,13.184-5.274,25.821-14.566,35.165l-5,5
		c-9.293,9.344-14.532,21.982-14.566,35.165L366.967,213.341L366.967,213.341z"/>
	<rect x="349.943" y="230.399" style="fill:#4398D1;" width="17.066" height="17.066"/>
</g>
<path d="M340.156,338.779c-15.633,48.383-23.85,98.848-24.388,149.689v23.535h17.066v-23.535
	c0.538-49.109,8.499-97.842,23.611-144.569L340.156,338.779z"/>
<path d="M42.706,258.772c-3.49,8.755-26.547,61.302-41.941,96.22c-1.886,4.318,0.085,9.352,4.412,11.238
	c1.075,0.469,2.227,0.708,3.396,0.708h34.133v59.732c0.026,23.552,19.114,42.64,42.666,42.666h42.666v42.666h17.066v-51.199
	c0-4.71-3.823-8.533-8.533-8.533H85.372c-14.139,0-25.6-11.46-25.6-25.6v-25.6h34.133v-17.066H59.772v-25.6
	c0-4.71-3.823-8.533-8.533-8.533H21.663c38.109-86.433,38.109-87.337,38.109-89.599c0.162-74.614,55.235-137.717,129.141-147.974
	l-2.287-16.913C104.828,106.736,43.636,176.205,42.706,258.772z"/>
<path d="M214.223,243.302c16.068,26.248,47.197,39.176,77.131,32.034c11.861,37.026,51.489,57.437,88.515,45.576
	c21.666-6.937,38.638-23.91,45.576-45.576c29.951,7.168,61.123-5.76,77.2-32.034c15.419-26.171,11.375-59.434-9.856-81.159
	c21.231-21.725,25.275-54.988,9.856-81.159c-16.068-26.248-47.197-39.176-77.132-32.034c-11.861-37.026-51.489-57.437-88.515-45.576
	c-21.666,6.937-38.638,23.91-45.576,45.576c-29.952-7.176-61.123,5.76-77.2,32.034c-15.419,26.171-11.375,59.434,9.856,81.159
	C202.84,183.868,198.804,217.13,214.223,243.302z M242.041,168.935c3.755-2.85,4.48-8.209,1.63-11.955
	c-0.469-0.614-1.015-1.161-1.63-1.63c-20.403-15.377-26.06-43.596-13.15-65.646c13.696-22.229,41.335-31.462,65.637-21.922
	c4.395,1.715,9.335-0.461,11.05-4.847c0.239-0.606,0.401-1.229,0.495-1.869c5.052-28.902,32.571-48.23,61.473-43.178
	c22.05,3.857,39.321,21.128,43.178,43.178c0.683,4.659,5.018,7.893,9.677,7.211c0.64-0.094,1.263-0.256,1.869-0.495
	c24.303-9.54,51.942-0.307,65.637,21.922c12.894,22.033,7.262,50.226-13.116,65.612c-3.755,2.85-4.48,8.209-1.63,11.955
	c0.469,0.614,1.015,1.161,1.63,1.63c20.403,15.377,26.06,43.596,13.15,65.646c-13.687,22.237-41.335,31.47-65.637,21.922
	c-4.395-1.715-9.335,0.461-11.05,4.847c-0.239,0.606-0.401,1.229-0.495,1.869c-5.052,28.902-32.571,48.23-61.473,43.178
	c-22.05-3.857-39.321-21.128-43.178-43.178c-0.683-4.659-5.018-7.893-9.677-7.211c-0.64,0.094-1.263,0.256-1.869,0.495
	c-24.303,9.54-51.95,0.307-65.637-21.922c-12.868-22.033-7.219-50.209,13.15-65.578L242.041,168.935z"/>
<path d="M332.834,128.01c0-14.139,11.46-25.6,25.6-25.6c14.139,0,25.6,11.46,25.6,25.6c-0.026,8.661-3.456,16.955-9.566,23.099l-5,5
	c-12.484,12.552-19.515,29.525-19.567,47.231v10.001h17.066v-10.001c0.034-13.184,5.274-25.821,14.566-35.165l5-5
	c9.293-9.344,14.532-21.981,14.566-35.165c0-23.56-19.106-42.666-42.666-42.666s-42.666,19.106-42.666,42.666v8.533h17.066
	L332.834,128.01L332.834,128.01z"/>
<rect x="349.943" y="230.399" width="17.066" height="17.066"/>
<path d="M136.571,238.941c-18.85,0-34.133,15.283-34.133,34.133s15.283,34.133,34.133,34.133s34.133-15.283,34.133-34.133
	S155.421,238.941,136.571,238.941z M136.571,290.14c-9.429,0-17.066-7.637-17.066-17.066s7.637-17.066,17.066-17.066
	s17.066,7.637,17.066,17.066S145.992,290.14,136.571,290.14z"/>
<g>
</g>
<g>
</g>
<g>
</g>
<g>
</g>
<g>
</g>
<g>
</g>
<g>
</g>
<g>
</g>
<g>
</g>
<g>
</g>
<g>
</g>
<g>
</g>
<g>
</g>
<g>
</g>
<g>
</g>
</svg>
