<?xml version="1.0" encoding="iso-8859-1"?>
<!-- Generator: Adobe Illustrator 21.0.0, SVG Export Plug-In . SVG Version: 6.00 Build 0)  -->
<svg version="1.1" id="Capa_1" xmlns="http://www.w3.org/2000/svg" xmlns:xlink="http://www.w3.org/1999/xlink" x="0px" y="0px"
	 viewBox="0 0 512 512" style="enable-background:new 0 0 512 512;" xml:space="preserve">
<linearGradient id="SVGID_1_" gradientUnits="userSpaceOnUse" x1="74.9807" y1="439.0193" x2="437.0193" y2="76.9807" gradientTransform="matrix(1 0 0 -1 0 514)">
	<stop  offset="0" style="stop-color:#FF3636"/>
	<stop  offset="1" style="stop-color:#AC0000"/>
</linearGradient>
<circle style="fill:url(#SVGID_1_);" cx="256" cy="256" r="256"/>
<g>
	
		<linearGradient id="SVGID_2_" gradientUnits="userSpaceOnUse" x1="139.5" y1="278.1625" x2="373.36" y2="278.1625" gradientTransform="matrix(1 0 0 -1 0 514)">
		<stop  offset="0" style="stop-color:#B34F03"/>
		<stop  offset="1" style="stop-color:#6F2E01"/>
	</linearGradient>
	<path style="fill:url(#SVGID_2_);" d="M168.197,265.105h-58.535V206.57h58.535V265.105z"/>
	
		<linearGradient id="SVGID_3_" gradientUnits="userSpaceOnUse" x1="139.5" y1="278.1625" x2="373.36" y2="278.1625" gradientTransform="matrix(1 0 0 -1 0 514)">
		<stop  offset="0" style="stop-color:#B34F03"/>
		<stop  offset="1" style="stop-color:#6F2E01"/>
	</linearGradient>
	<path style="fill:url(#SVGID_3_);" d="M402.338,265.105h-58.535V206.57h58.535V265.105z"/>
</g>
<linearGradient id="SVGID_4_" gradientUnits="userSpaceOnUse" x1="148.686" y1="248.244" x2="363.314" y2="248.244" gradientTransform="matrix(1 0 0 -1 0 514)">
	<stop  offset="0" style="stop-color:#EDE9E8"/>
	<stop  offset="1" style="stop-color:#DFD7D5"/>
</linearGradient>
<path style="fill:url(#SVGID_4_);" d="M363.314,216.326v97.559C363.314,373.2,315.315,422.5,256,422.5
	s-107.314-49.3-107.314-108.615v-97.559c0-59.316,47.999-107.314,107.314-107.314c29.658,0,56.584,12.097,75.901,31.414
	S363.314,186.668,363.314,216.326z"/>
<g>
	
		<linearGradient id="SVGID_5_" gradientUnits="userSpaceOnUse" x1="201" y1="200.114" x2="310.96" y2="200.114" gradientTransform="matrix(1 0 0 -1 0 514)">
		<stop  offset="0" style="stop-color:#5A5A5A"/>
		<stop  offset="1" style="stop-color:#292929"/>
	</linearGradient>
	<rect x="226.73" y="304.13" style="fill:url(#SVGID_5_);" width="19.512" height="19.512"/>
	
		<linearGradient id="SVGID_6_" gradientUnits="userSpaceOnUse" x1="201" y1="200.114" x2="310.96" y2="200.114" gradientTransform="matrix(1 0 0 -1 0 514)">
		<stop  offset="0" style="stop-color:#5A5A5A"/>
		<stop  offset="1" style="stop-color:#292929"/>
	</linearGradient>
	<rect x="265.76" y="304.13" style="fill:url(#SVGID_6_);" width="19.512" height="19.512"/>
	
		<linearGradient id="SVGID_7_" gradientUnits="userSpaceOnUse" x1="201" y1="317.184" x2="310.96" y2="317.184" gradientTransform="matrix(1 0 0 -1 0 514)">
		<stop  offset="0" style="stop-color:#5A5A5A"/>
		<stop  offset="1" style="stop-color:#292929"/>
	</linearGradient>
	<rect x="226.73" y="187.06" style="fill:url(#SVGID_7_);" width="19.512" height="19.512"/>
	
		<linearGradient id="SVGID_8_" gradientUnits="userSpaceOnUse" x1="201" y1="317.184" x2="310.96" y2="317.184" gradientTransform="matrix(1 0 0 -1 0 514)">
		<stop  offset="0" style="stop-color:#5A5A5A"/>
		<stop  offset="1" style="stop-color:#292929"/>
	</linearGradient>
	<rect x="265.76" y="187.06" style="fill:url(#SVGID_8_);" width="19.512" height="19.512"/>
	
		<linearGradient id="SVGID_9_" gradientUnits="userSpaceOnUse" x1="201" y1="161.094" x2="310.96" y2="161.094" gradientTransform="matrix(1 0 0 -1 0 514)">
		<stop  offset="0" style="stop-color:#5A5A5A"/>
		<stop  offset="1" style="stop-color:#292929"/>
	</linearGradient>
	<rect x="265.76" y="343.15" style="fill:url(#SVGID_9_);" width="19.512" height="19.512"/>
	
		<linearGradient id="SVGID_10_" gradientUnits="userSpaceOnUse" x1="201" y1="161.094" x2="310.96" y2="161.094" gradientTransform="matrix(1 0 0 -1 0 514)">
		<stop  offset="0" style="stop-color:#5A5A5A"/>
		<stop  offset="1" style="stop-color:#292929"/>
	</linearGradient>
	<rect x="226.73" y="343.15" style="fill:url(#SVGID_10_);" width="19.512" height="19.512"/>
</g>
<linearGradient id="SVGID_11_" gradientUnits="userSpaceOnUse" x1="139.5" y1="395.2325" x2="373.36" y2="395.2325" gradientTransform="matrix(1 0 0 -1 0 514)">
	<stop  offset="0" style="stop-color:#B34F03"/>
	<stop  offset="1" style="stop-color:#6F2E01"/>
</linearGradient>
<path style="fill:url(#SVGID_11_);" d="M226.732,89.5v58.535h58.535V89.5H226.732z"/>
<g>
	
		<linearGradient id="SVGID_12_" gradientUnits="userSpaceOnUse" x1="201" y1="258.651" x2="310.96" y2="258.651" gradientTransform="matrix(1 0 0 -1 0 514)">
		<stop  offset="0" style="stop-color:#5A5A5A"/>
		<stop  offset="1" style="stop-color:#292929"/>
	</linearGradient>
	<path style="fill:url(#SVGID_12_);" d="M216.977,284.617c-16.139,0-29.268-13.128-29.268-29.268s13.128-29.268,29.268-29.268
		s29.268,13.128,29.268,29.268S233.116,284.617,216.977,284.617z"/>
	
		<linearGradient id="SVGID_13_" gradientUnits="userSpaceOnUse" x1="201" y1="258.651" x2="310.96" y2="258.651" gradientTransform="matrix(1 0 0 -1 0 514)">
		<stop  offset="0" style="stop-color:#5A5A5A"/>
		<stop  offset="1" style="stop-color:#292929"/>
	</linearGradient>
	<path style="fill:url(#SVGID_13_);" d="M295.023,284.617c-16.139,0-29.268-13.128-29.268-29.268s13.128-29.268,29.268-29.268
		s29.268,13.128,29.268,29.268S311.163,284.617,295.023,284.617z"/>
</g>
<g>
</g>
<g>
</g>
<g>
</g>
<g>
</g>
<g>
</g>
<g>
</g>
<g>
</g>
<g>
</g>
<g>
</g>
<g>
</g>
<g>
</g>
<g>
</g>
<g>
</g>
<g>
</g>
<g>
</g>
</svg>
